<svg height="512pt" viewBox="-28 0 511 512" width="512pt" xmlns="http://www.w3.org/2000/svg"><path d="m448.730469 134.5c-4.15625 0-7.519531 3.367188-7.519531 7.519531v195.894531h-171.84375v-99.015624c0-4.15625-3.367188-7.523438-7.519532-7.523438h-62.210937c-4.152344 0-7.519531 3.367188-7.519531 7.523438v99.015624h-176.574219v-56.785156c0-4.15625-3.367188-7.523437-7.523438-7.523437-4.152343 0-7.519531 3.367187-7.519531 7.523437v64.304688c0 4.152344 3.367188 7.519531 7.519531 7.519531h184.097657v30.355469h-38.066407c-2.75 0-5.28125 1.503906-6.601562 3.917968-1.316407 2.417969-1.210938 5.359376.277343 7.671876l73.101563 113.648437c1.375 2.136719 3.730469 3.433594 6.269531 3.453125h.054688c2.519531 0 4.871094-1.257812 6.265625-3.355469l75.546875-113.652343c1.53125-2.308594 1.671875-5.273438.363281-7.714844s-3.855469-3.96875-6.628906-3.96875h-33.332031v-30.355469h179.363281c4.15625 0 7.519531-3.367187 7.519531-7.519531v-203.414063c0-4.152343-3.367188-7.519531-7.519531-7.519531zm-160.0625 263.851562-61.410157 92.386719-59.425781-92.386719h31.808594c4.152344 0 7.519531-3.367187 7.519531-7.519531v-144.414062h47.167969v144.414062c0 4.152344 3.363281 7.519531 7.519531 7.519531zm0 0"/><path d="m448.730469 47.164062h-276.015625c-.113282-.300781-.246094-.601562-.402344-.894531-15.441406-28.539062-45.066406-46.269531-77.308594-46.269531h-86.984375c-4.152343 0-7.519531 3.367188-7.519531 7.519531v239.132813c0 4.15625 3.367188 7.523437 7.519531 7.523437 4.15625 0 7.523438-3.367187 7.523438-7.523437v-184.445313h425.667969v45.949219c0 4.152344 3.367187 7.519531 7.519531 7.519531 4.15625 0 7.519531-3.367187 7.519531-7.519531v-53.472656c0-4.152344-3.367188-7.519532-7.519531-7.519532zm-433.1875-32.121093h79.460937c24.273438 0 46.757813 12.140625 60.277344 32.121093h-139.738281zm0 0"/></svg>